<svg width="25" height="25" viewBox="0 0 25 25" fill="none" xmlns="http://www.w3.org/2000/svg">
<path d="M3.67972 8.21707C3.86725 8.0296 4.12155 7.92429 4.38672 7.92429C4.65188 7.92429 4.90619 8.0296 5.09372 8.21707L12.8867 16.0101L20.6797 8.21707C20.772 8.12156 20.8823 8.04538 21.0043 7.99297C21.1263 7.94056 21.2575 7.91298 21.3903 7.91182C21.5231 7.91067 21.6548 7.93597 21.7777 7.98625C21.9006 8.03653 22.0122 8.11079 22.1061 8.20468C22.2 8.29857 22.2743 8.41022 22.3245 8.53312C22.3748 8.65602 22.4001 8.78769 22.399 8.92047C22.3978 9.05325 22.3702 9.18447 22.3178 9.30648C22.2654 9.42848 22.1892 9.53883 22.0937 9.63107L12.8867 18.8381L3.67972 9.63107C3.49225 9.44355 3.38693 9.18924 3.38693 8.92407C3.38693 8.65891 3.49225 8.4046 3.67972 8.21707Z" fill="white"/>
</svg>
