<svg width="17" height="17" viewBox="0 0 17 17" fill="none" xmlns="http://www.w3.org/2000/svg">
<g clip-path="url(#clip0_0_78)">
<path d="M13.7617 2.17407C13.4633 2.17407 13.1772 2.2926 12.9662 2.50358C12.7552 2.71456 12.6367 3.0007 12.6367 3.29907C12.6367 3.59744 12.7552 3.88359 12.9662 4.09457C13.1772 4.30555 13.4633 4.42407 13.7617 4.42407C14.0601 4.42407 14.3462 4.30555 14.5572 4.09457C14.7682 3.88359 14.8867 3.59744 14.8867 3.29907C14.8867 3.0007 14.7682 2.71456 14.5572 2.50358C14.3462 2.2926 14.0601 2.17407 13.7617 2.17407ZM11.1367 3.29907C11.1367 2.69085 11.3478 2.10149 11.7341 1.63169C12.1204 1.16189 12.6579 0.840818 13.2546 0.723325C13.8514 0.605833 14.4704 0.699216 15.006 0.987519C15.5415 1.27582 15.9604 1.74115 16.1909 2.30399C16.4214 2.86684 16.4493 3.49227 16.2699 4.07341C16.0904 4.65455 15.7147 5.15534 15.207 5.49021C14.6992 5.82507 14.091 5.97323 13.4861 5.90937C12.8812 5.84551 12.3173 5.57359 11.8907 5.14007L6.63672 8.17407L11.8907 11.2081C12.3333 10.759 12.9226 10.4842 13.5511 10.434C14.1796 10.3837 14.8051 10.5613 15.3134 10.9343C15.8217 11.3073 16.1788 11.8508 16.3193 12.4654C16.4599 13.08 16.3745 13.7247 16.0789 14.2815C15.7832 14.8384 15.2971 15.2702 14.7092 15.4981C14.1214 15.726 13.4711 15.7347 12.8774 15.5226C12.2837 15.3106 11.7861 14.8919 11.4757 14.3431C11.1652 13.7944 11.0627 13.1522 11.1867 12.5341L6.18672 9.64507C5.87179 10.1103 5.41591 10.4622 4.88609 10.6491C4.35628 10.836 3.78049 10.8479 3.24338 10.6832C2.70626 10.5185 2.23615 10.1859 1.90217 9.73411C1.56818 9.28236 1.38794 8.73537 1.38794 8.17357C1.38794 7.61177 1.56818 7.06479 1.90217 6.61304C2.23615 6.16129 2.70626 5.82861 3.24338 5.66391C3.78049 5.49921 4.35628 5.51117 4.88609 5.69805C5.41591 5.88492 5.87179 6.23684 6.18672 6.70207L11.1867 3.81407C11.1528 3.64417 11.1357 3.47133 11.1357 3.29807L11.1367 3.29907ZM4.01172 7.04907C3.71335 7.04907 3.4272 7.1676 3.21622 7.37858C3.00524 7.58956 2.88672 7.8757 2.88672 8.17407C2.88672 8.47244 3.00524 8.75859 3.21622 8.96957C3.4272 9.18055 3.71335 9.29907 4.01172 9.29907C4.31009 9.29907 4.59623 9.18055 4.80721 8.96957C5.01819 8.75859 5.13672 8.47244 5.13672 8.17407C5.13672 7.8757 5.01819 7.58956 4.80721 7.37858C4.59623 7.1676 4.31009 7.04907 4.01172 7.04907ZM13.7617 11.9241C13.614 11.9241 13.4677 11.9532 13.3312 12.0097C13.1947 12.0662 13.0707 12.1491 12.9662 12.2536C12.8618 12.358 12.7789 12.4821 12.7224 12.6186C12.6658 12.755 12.6367 12.9013 12.6367 13.0491C12.6367 13.1968 12.6658 13.3431 12.7224 13.4796C12.7789 13.6161 12.8618 13.7401 12.9662 13.8446C13.0707 13.949 13.1947 14.0319 13.3312 14.0884C13.4677 14.145 13.614 14.1741 13.7617 14.1741C14.0601 14.1741 14.3462 14.0555 14.5572 13.8446C14.7682 13.6336 14.8867 13.3474 14.8867 13.0491C14.8867 12.7507 14.7682 12.4646 14.5572 12.2536C14.3462 12.0426 14.0601 11.9241 13.7617 11.9241Z" fill="white"/>
</g>
<defs>
<clipPath id="clip0_0_78">
<rect width="16" height="16" fill="white" transform="translate(0.886719 0.174072)"/>
</clipPath>
</defs>
</svg>
