<svg width="16" height="16" viewBox="0 0 16 16" fill="none" xmlns="http://www.w3.org/2000/svg">
<path d="M13.9275 1.33725L13.9981 1.33325L14.0848 1.33859L14.1448 1.34925L14.2268 1.37259L14.2981 1.40325L14.3648 1.44125L14.4248 1.48592L14.4794 1.53592L14.5141 1.57525L14.5688 1.65259L14.6034 1.71659C14.6346 1.78325 14.6546 1.85347 14.6635 1.92725L14.6668 1.99792C14.6668 2.04814 14.6614 2.09703 14.6508 2.14459L14.6274 2.22659L10.2728 14.2779C10.1902 14.4576 10.0578 14.6099 9.89134 14.7166C9.72484 14.8233 9.53121 14.88 9.33345 14.8799C9.15537 14.8803 8.98023 14.8346 8.82499 14.7474C8.66976 14.6601 8.5397 14.5342 8.44745 14.3819L8.40412 14.2973L6.16945 9.82925L1.72278 7.60525C1.55825 7.53 1.41636 7.41287 1.3113 7.26558C1.20624 7.11828 1.14169 6.94599 1.12412 6.76592L1.12012 6.66659C1.12012 6.29325 1.32078 5.95192 1.68078 5.75325L1.77412 5.70659L13.7854 1.36925L13.8561 1.34925L13.9275 1.33725Z" fill="#7660FD"/>
</svg>
