<svg width="53" height="6" viewBox="0 0 53 6" fill="none" xmlns="http://www.w3.org/2000/svg">
<path d="M2 3.88708L5.64023 2.12975C6.83834 1.55136 8.24561 1.60651 9.39477 2.27689L10.3326 2.82397C11.4277 3.46283 12.8049 3.35183 13.7836 2.54583V2.54583C14.7622 1.73984 16.1394 1.62884 17.2345 2.26769L18.0733 2.75696C19.2767 3.45897 20.7586 3.48426 21.9853 2.82374L23.0957 2.2258C24.2796 1.58827 25.7047 1.58827 26.8886 2.22579L27.9086 2.77502C29.1838 3.46172 30.7306 3.4054 31.9526 2.62778L32.3651 2.36522C33.5032 1.64097 34.9297 1.53914 36.1591 2.09438L38.2485 3.03799C39.428 3.57072 40.7924 3.49978 41.9104 2.84762L43.0179 2.20157C44.095 1.57325 45.4034 1.48317 46.5565 1.95796L51.2413 3.88708" stroke="url(#paint0_linear_0_107)" stroke-width="3" stroke-linecap="round"/>
<defs>
<linearGradient id="paint0_linear_0_107" x1="3.11186" y1="-0.0974022" x2="64.727" y2="14.1482" gradientUnits="userSpaceOnUse">
<stop stop-color="#DAEF61"/>
<stop offset="1" stop-color="#689CDA"/>
</linearGradient>
</defs>
</svg>
